<svg xmlns="http://www.w3.org/2000/svg" viewBox="0 0 60 30">
  <rect width="60" height="30" fill="#b22234"/>
  <path d="M0 0v30h60V0H0z" fill="none" stroke="#fff" stroke-width=".5"/>
  <path fill="#fff" d="M0 0h60v2.31H0zm0 4.62h60v2.31H0zm0 4.62h60v2.31H0zm0 4.62h60v2.31H0zm0 4.62h60v2.31H0zm0 4.62h60v2.31H0zm0 4.62h60v2.31H0z"/>
  <rect width="24" height="15.4" fill="#3c3b6e"/>
  <g fill="#fff">
    <circle cx="3" cy="2.5" r=".7"/>
    <circle cx="7" cy="2.5" r=".7"/>
    <circle cx="11" cy="2.5" r=".7"/>
    <circle cx="15" cy="2.5" r=".7"/>
    <circle cx="19" cy="2.5" r=".7"/>
    <circle cx="23" cy="2.5" r=".7"/>
    <circle cx="5" cy="5" r=".7"/>
    <circle cx="9" cy="5" r=".7"/>
    <circle cx="13" cy="5" r=".7"/>
    <circle cx="17" cy="5" r=".7"/>
    <circle cx="21" cy="5" r=".7"/>
    <circle cx="3" cy="7.5" r=".7"/>
    <circle cx="7" cy="7.5" r=".7"/>
    <circle cx="11" cy="7.5" r=".7"/>
    <circle cx="15" cy="7.5" r=".7"/>
    <circle cx="19" cy="7.5" r=".7"/>
    <circle cx="23" cy="7.5" r=".7"/>
    <circle cx="5" cy="10" r=".7"/>
    <circle cx="9" cy="10" r=".7"/>
    <circle cx="13" cy="10" r=".7"/>
    <circle cx="17" cy="10" r=".7"/>
    <circle cx="21" cy="10" r=".7"/>
  </g>
</svg>
