<?xml version="1.0" encoding="utf-8"?>
<!-- Generator: Adobe Illustrator 16.0.0, SVG Export Plug-In . SVG Version: 6.00 Build 0)  -->
<!DOCTYPE svg PUBLIC "-//W3C//DTD SVG 1.1//EN" "http://www.w3.org/Graphics/SVG/1.1/DTD/svg11.dtd">
<svg xmlns="http://www.w3.org/2000/svg" xmlns:xlink="http://www.w3.org/1999/xlink" width="400" height="400" viewBox="0 0 400 400">
  <defs>
    <clipPath id="clip-path">
      <rect id="Rectangle_16403" data-name="Rectangle 16403" width="331.666" height="261.475" fill="none"/>
    </clipPath>
    <clipPath id="clip-FP-icon-color">
      <rect width="400" height="400"/>
    </clipPath>
  </defs>
  <g id="FP-icon-color" clip-path="url(#clip-FP-icon-color)">
    <g id="Group_56322" data-name="Group 56322" transform="translate(34 69.002)">
      <g id="Group_56321" data-name="Group 56321" transform="translate(0 -0.001)" clip-path="url(#clip-path)">
        <path id="Path_86295" data-name="Path 86295" d="M486.115,268.509a27.416,27.416,0,0,1-19.393-9.077,27.743,27.743,0,0,1-5.356-9.043,28.032,28.032,0,0,1-1.6-10.339,26.923,26.923,0,0,1,8.945-19.107,28.147,28.147,0,0,1,8.962-5.392,26.075,26.075,0,0,1,17.3-.318,28.063,28.063,0,0,1,9.182,5.019,27.113,27.113,0,0,1,9.71,18.732,27.688,27.688,0,0,1-6.172,19.638,26.286,26.286,0,0,1-8.461,6.839,26.752,26.752,0,0,1-8.451,2.766,28.8,28.8,0,0,1-4.658.281" transform="translate(-320.904 -149.324)" fill="#0a1f34"/>
        <path id="Path_86296" data-name="Path 86296" d="M394.013,233.729a49.565,49.565,0,1,1-92.345,0h-39.2a86.993,86.993,0,0,0,8.9,59.949l.3.5c.7,1.249,1.418,2.478,2.18,3.675,7.94,13.407,32.668,55.2,39.8,67.551,2.732,4.753,7.242,12.566,12.11,20.989,1.8,3.111,3.65,6.319,5.464,9.475,8.573,14.836,16.6,28.747,16.6,28.747s8.04-13.911,16.61-28.747c1.821-3.156,3.67-6.363,5.464-9.475,4.862-8.415,9.378-16.236,12.107-20.989,7.943-13.756,36.382-61.689,40.363-68.406.081-.12.156-.265.237-.393.132-.23.237-.4.237-.4a86.856,86.856,0,0,0,12.222-44.531,87.83,87.83,0,0,0-1.869-17.944Z" transform="translate(-181.899 -163.143)" fill="#ef4c4f"/>
        <rect id="Rectangle_16398" data-name="Rectangle 16398" width="205.926" height="19.372" transform="translate(62.972 35.424)" fill="#0a1f34"/>
        <rect id="Rectangle_16399" data-name="Rectangle 16399" width="19.386" height="92.832" transform="translate(278.695 0.01)" fill="#0a1f34"/>
        <rect id="Rectangle_16400" data-name="Rectangle 16400" width="19.375" height="58.898" transform="translate(312.291 16.969)" fill="#0a1f34"/>
        <rect id="Rectangle_16401" data-name="Rectangle 16401" width="19.379" height="92.831" transform="translate(33.578 0)" fill="#0a1f34"/>
        <rect id="Rectangle_16402" data-name="Rectangle 16402" width="19.379" height="58.899" transform="translate(0 16.974)" fill="#0a1f34"/>
      </g>
    </g>
  </g>
</svg>